<svg id="Layer_1" data-name="Layer 1" xmlns="http://www.w3.org/2000/svg" viewBox="0 0 379.17 94.24"><path d="M13.66,47A13.61,13.61,0,0,0,1.71,33.51a54.22,54.22,0,0,0,0,27A13.62,13.62,0,0,0,13.66,47Z" fill="#e6252a"/><path d="M21.58,42.74A4.28,4.28,0,1,0,25.85,47,4.28,4.28,0,0,0,21.58,42.74Z" fill="#e6252a"/><path d="M80.54,47A13.63,13.63,0,0,0,92.49,60.53a53.92,53.92,0,0,0,0-27A13.61,13.61,0,0,0,80.54,47Z" fill="#e6252a"/><path d="M72.62,42.74A4.28,4.28,0,1,0,76.9,47,4.28,4.28,0,0,0,72.62,42.74Z" fill="#e6252a"/><path d="M47,80.58a13.61,13.61,0,0,0-13.5,12,54.18,54.18,0,0,0,27,0A13.61,13.61,0,0,0,47,80.58Z" fill="#e6252a"/><path d="M47,68.38a4.28,4.28,0,1,0,4.27,4.28A4.28,4.28,0,0,0,47,68.38Z" fill="#e6252a"/><path d="M47,13.66A13.61,13.61,0,0,0,60.52,1.71a54.18,54.18,0,0,0-27,0A13.61,13.61,0,0,0,47,13.66Z" fill="#e6252a"/><path d="M47,17.31a4.27,4.27,0,1,0,4.27,4.27A4.27,4.27,0,0,0,47,17.31Z" fill="#e6252a"/><path d="M70.7,70.7a13.63,13.63,0,0,0-1.11,18,54,54,0,0,0,19.1-19.1A13.63,13.63,0,0,0,70.7,70.7Z" fill="#e6252a"/><path d="M62.08,62.08a4.27,4.27,0,1,0,6,0A4.27,4.27,0,0,0,62.08,62.08Z" fill="#e6252a"/><path d="M23.4,23.4a13.61,13.61,0,0,0,1.11-18A54.13,54.13,0,0,0,5.41,24.52,13.62,13.62,0,0,0,23.4,23.4Z" fill="#e6252a"/><path d="M26,26a4.27,4.27,0,1,0,6,0A4.29,4.29,0,0,0,26,26Z" fill="#e6252a"/><path d="M70.67,23.36a13.62,13.62,0,0,0,18,1.11,54,54,0,0,0-19.1-19.1A13.63,13.63,0,0,0,70.67,23.36Z" fill="#e6252a"/><path d="M68.1,32a4.27,4.27,0,1,0-6,0A4.29,4.29,0,0,0,68.1,32Z" fill="#e6252a"/><path d="M23.38,70.65a13.62,13.62,0,0,0-18-1.11,54.1,54.1,0,0,0,19.1,19.1A13.61,13.61,0,0,0,23.38,70.65Z" fill="#e6252a"/><path d="M26,62a4.27,4.27,0,1,0,6,0A4.29,4.29,0,0,0,26,62Z" fill="#e6252a"/><path d="M156.67,67c0,9.24-6,12.66-15.06,12.66h-.17c-9.06,0-15-3.33-15-12.66V31c0-8.89,6-12.66,15-12.66h.17c9.07,0,15.06,3.77,15.06,12.66v7.09h-9.93V32.57c0-4.19-2.05-5.47-5.21-5.47s-5.22,1.28-5.22,5.47V65.41c0,4.2,2.05,5.48,5.22,5.48s5.21-1.28,5.21-5.48v-7h9.93Z" fill="#e6252a"/><path d="M191.83,65.59h-11l-2.14,13.34h-9.58l11.12-59.87h12.49l11.29,59.87H194Zm-1.29-8.21-4.19-26.6-4.19,26.6Z" fill="#e6252a"/><path d="M217.58,78.93V19.06h9.92l12.57,37v-37h9.07V78.93h-9.41L226.64,40V78.93Z" fill="#e6252a"/><path d="M284.9,78.93H274L262.66,19.06h10.09l6.93,44.39,6.93-44.39h9.58Z" fill="#e6252a"/><path d="M325.79,65.59h-11L312.7,78.93h-9.58l11.12-59.87h12.49L338,78.93H327.93Zm-1.28-8.21-4.19-26.6-4.2,26.6Z" fill="#e6252a"/><path d="M369.25,36.58V32.06c0-3.76-2.14-5.13-5.05-5.13s-5,1.37-5,5.13v4.1c0,3.08,1,4.45,3.84,6.08l7,3.93c5.73,3.25,9.15,5.9,9.15,12.32v8.64c0,9.23-5.73,12.48-14.8,12.48h-.17c-9.06,0-14.8-3.16-14.8-12.48V60.79h9.76v5c0,3.67,2.13,5.3,5.13,5.3s5.13-1.63,5.13-5.3V61.05c0-3.08-.94-4.62-3.94-6.24l-6.92-3.94c-5.82-3.33-9.16-6.07-9.16-12.31V30.69c0-8.9,6.5-12.32,14.72-12.32h.17c8.21,0,14.71,3.42,14.71,12.32v5.89Z" fill="#e6252a"/></svg>